<svg width="35" height="35" viewBox="0 0 35 35" fill="none" xmlns="http://www.w3.org/2000/svg">
<path d="M17.5004 4.77271C14.044 4.77271 13.6102 4.78782 12.2527 4.8496C10.8978 4.91164 9.97299 5.12615 9.16377 5.44089C8.32671 5.76596 7.61666 6.20081 6.90925 6.9085C6.20132 7.61592 5.76648 8.326 5.44036 9.16282C5.12484 9.97233 4.91007 10.8974 4.84909 12.2518C4.78837 13.6094 4.77246 14.0435 4.77246 17.5C4.77246 20.9565 4.78784 21.389 4.84935 22.7465C4.91166 24.1015 5.12616 25.0263 5.44062 25.8355C5.76595 26.6726 6.20079 27.3827 6.90846 28.0901C7.61559 28.7981 8.32565 29.234 9.16218 29.5591C9.97192 29.8738 10.897 30.0883 12.2516 30.1504C13.6092 30.2121 14.0427 30.2272 17.4988 30.2272C20.9555 30.2272 21.3879 30.2121 22.7455 30.1504C24.1004 30.0883 25.0262 29.8738 25.836 29.5591C26.6728 29.234 27.3818 28.7981 28.0889 28.0901C28.7968 27.3827 29.2317 26.6726 29.5578 25.8358C29.8707 25.0263 30.0854 24.1012 30.1491 22.7468C30.2101 21.3892 30.226 20.9565 30.226 17.5C30.226 14.0435 30.2101 13.6097 30.1491 12.2521C30.0854 10.8972 29.8707 9.97233 29.5578 9.16308C29.2317 8.326 28.7968 7.61592 28.0889 6.9085C27.381 6.20055 26.673 5.7657 25.8352 5.44089C25.0239 5.12615 24.0985 4.91164 22.7436 4.8496C21.3861 4.78782 20.9539 4.77271 17.4964 4.77271H17.5004ZM16.3587 7.06627C16.6976 7.06573 17.0756 7.06627 17.5004 7.06627C20.8985 7.06627 21.3012 7.07846 22.6431 7.13945C23.884 7.19619 24.5575 7.40354 25.0061 7.57774C25.6 7.80842 26.0234 8.08418 26.4686 8.52964C26.9141 8.97509 27.1898 9.39933 27.421 9.99327C27.5952 10.4414 27.8028 11.1149 27.8593 12.3558C27.9203 13.6974 27.9335 14.1005 27.9335 17.4971C27.9335 20.8936 27.9203 21.2967 27.8593 22.6383C27.8026 23.8793 27.5952 24.5527 27.421 25.0008C27.1903 25.5948 26.9141 26.0177 26.4686 26.4629C26.0232 26.9083 25.6003 27.1841 25.0061 27.4148C24.558 27.5898 23.884 27.7966 22.6431 27.8533C21.3015 27.9143 20.8985 27.9276 17.5004 27.9276C14.1021 27.9276 13.6993 27.9143 12.3577 27.8533C11.1168 27.7961 10.4433 27.5887 9.99446 27.4145C9.40054 27.1838 8.97631 26.9081 8.53087 26.4626C8.08543 26.0172 7.80968 25.594 7.57847 24.9998C7.40428 24.5517 7.19667 23.8782 7.14019 22.6373C7.07921 21.2956 7.06701 20.8926 7.06701 17.4939C7.06701 14.0952 7.07921 13.6943 7.14019 12.3526C7.19693 11.1117 7.40428 10.4382 7.57847 9.98956C7.80915 9.39562 8.08543 8.97138 8.53087 8.52592C8.97631 8.08047 9.40054 7.80471 9.99446 7.5735C10.4431 7.3985 11.1168 7.19168 12.3577 7.13467C13.5317 7.08164 13.9867 7.06574 16.3587 7.06308V7.06627ZM24.2939 9.17952C23.4508 9.17952 22.7667 9.86282 22.7667 10.7063C22.7667 11.5494 23.4508 12.2335 24.2939 12.2335C25.1371 12.2335 25.8211 11.5494 25.8211 10.7063C25.8211 9.86308 25.1371 9.17899 24.2939 9.17899V9.17952ZM17.5004 10.964C13.891 10.964 10.9646 13.8905 10.9646 17.5C10.9646 21.1095 13.891 24.0346 17.5004 24.0346C21.1098 24.0346 24.0351 21.1095 24.0351 17.5C24.0351 13.8905 21.1095 10.964 17.5001 10.964H17.5004ZM17.5004 13.2576C19.8432 13.2576 21.7427 15.1568 21.7427 17.5C21.7427 19.8429 19.8432 21.7424 17.5004 21.7424C15.1573 21.7424 13.2581 19.8429 13.2581 17.5C13.2581 15.1568 15.1573 13.2576 17.5004 13.2576V13.2576Z" fill="#E1E1E1"/>
</svg>
