<svg width="98" height="39" viewBox="0 0 98 39" fill="none" xmlns="http://www.w3.org/2000/svg">
<g clip-path="url(#clip0_25_55)">
<path d="M30.37 37.66C30.37 37.85 30.3 38.02 30.15 38.16C30.01 38.3 29.84 38.38 29.65 38.38C29.27 38.38 29.03 38.22 28.93 37.9L14.97 2.69002L13.39 6.77002C13.52 7.03002 13.79 7.67002 14.21 8.69002C14.63 9.71002 15.14 10.97 15.75 12.46C16.36 13.95 17.01 15.59 17.72 17.4C18.42 19.21 19.14 21.04 19.88 22.89C20.61 24.75 21.33 26.55 22.01 28.31C22.7 30.07 23.3 31.64 23.83 33.01C24.36 34.38 24.78 35.5 25.1 36.34C25.42 37.19 25.58 37.63 25.58 37.66C25.58 38.01 25.42 38.24 25.1 38.33C25.04 38.33 24.99 38.33 24.96 38.35C24.93 38.37 24.88 38.37 24.82 38.37C24.5 38.37 24.27 38.21 24.15 37.89L12.62 8.83002L1.44 37.9C1.31 38.22 1.07 38.38 0.72 38.38C0.66 38.38 0.62 38.38 0.6 38.36C0.58 38.34 0.54 38.34 0.48 38.34C0.16 38.24 0 38 0 37.62C0 37.59 0.19 37.06 0.57 36.04C0.95 35.02 1.46 33.69 2.08 32.06C2.7 30.43 3.42 28.56 4.24 26.45C5.06 24.34 5.89 22.17 6.74 19.95C7.59 17.73 8.43 15.53 9.28 13.35C10.13 11.18 10.89 9.19002 11.58 7.38002C12.27 5.57002 12.85 4.05002 13.33 2.82002C13.81 1.59002 14.11 0.80002 14.24 0.45002C14.37 0.16002 14.61 0.0200195 14.96 0.0200195C15.31 0.0200195 15.54 0.16002 15.63 0.45002C15.76 0.80002 16.07 1.59002 16.57 2.82002C17.07 4.05002 17.67 5.57002 18.37 7.38002C19.07 9.19002 19.86 11.18 20.75 13.35C21.63 15.53 22.51 17.72 23.39 19.95C24.27 22.17 25.13 24.34 25.98 26.45C26.83 28.56 27.57 30.44 28.21 32.09C28.85 33.74 29.37 35.07 29.77 36.1C30.17 37.13 30.37 37.65 30.37 37.68V37.66Z" fill="black"/>
<path d="M62.8001 37.64C62.8001 38.14 62.5401 38.38 62.0301 38.38H39.2901C38.8101 38.38 38.5701 38.14 38.5701 37.66V0.96C38.5701 0.77 38.6401 0.6 38.7901 0.46C38.9401 0.32 39.1101 0.24 39.3101 0.24C39.5101 0.24 39.6801 0.31 39.8301 0.46C39.9801 0.6 40.0501 0.77 40.0501 0.96V36.89H43.2201V0.77C43.2201 0.58 43.3001 0.4 43.4501 0.24C43.6001 0.08 43.7701 0 43.9601 0C44.4601 0 44.7001 0.26 44.7001 0.77V36.89H62.0201C62.5301 36.89 62.7901 37.14 62.7901 37.63L62.8001 37.64Z" fill="black"/>
<path d="M97.87 37.66C97.87 37.85 97.8 38.02 97.65 38.16C97.51 38.3 97.34 38.38 97.15 38.38C96.77 38.38 96.53 38.22 96.43 37.9L82.47 2.69001L80.89 6.77001C81.02 7.03001 81.29 7.67001 81.71 8.69001C82.13 9.71001 82.64 10.97 83.25 12.46C83.86 13.95 84.51 15.59 85.22 17.4C85.92 19.21 86.64 21.04 87.38 22.89C88.11 24.75 88.83 26.55 89.51 28.31C90.2 30.07 90.8 31.64 91.33 33.01C91.86 34.38 92.28 35.5 92.6 36.34C92.92 37.19 93.08 37.63 93.08 37.66C93.08 38.01 92.92 38.24 92.6 38.33C92.54 38.33 92.49 38.33 92.46 38.35C92.43 38.37 92.38 38.37 92.32 38.37C92 38.37 91.77 38.21 91.65 37.89L80.14 8.82001L68.96 37.89C68.83 38.21 68.59 38.37 68.24 38.37C68.18 38.37 68.14 38.37 68.12 38.35C68.1 38.33 68.06 38.33 68 38.33C67.68 38.23 67.52 37.99 67.52 37.61C67.52 37.58 67.71 37.05 68.09 36.03C68.47 35.01 68.98 33.68 69.6 32.05C70.22 30.42 70.94 28.55 71.76 26.44C72.58 24.33 73.41 22.16 74.26 19.94C75.11 17.72 75.95 15.52 76.8 13.34C77.65 11.17 78.41 9.18001 79.1 7.37001C79.79 5.56001 80.37 4.04001 80.85 2.81001C81.33 1.58001 81.63 0.79001 81.76 0.44001C81.89 0.15001 82.13 0.0100098 82.48 0.0100098C82.83 0.0100098 83.06 0.15001 83.15 0.44001C83.28 0.79001 83.59 1.58001 84.09 2.81001C84.59 4.04001 85.19 5.56001 85.89 7.37001C86.59 9.18001 87.38 11.17 88.27 13.34C89.15 15.52 90.03 17.71 90.91 19.94C91.79 22.16 92.65 24.33 93.5 26.44C94.35 28.55 95.09 30.43 95.73 32.08C96.37 33.73 96.89 35.06 97.29 36.09C97.69 37.12 97.89 37.64 97.89 37.67L97.87 37.66Z" fill="black"/>
</g>
<defs>
<clipPath id="clip0_25_55">
<rect width="97.87" height="38.38" fill="white"/>
</clipPath>
</defs>
</svg>
