<svg width="35" height="35" viewBox="0 0 35 35" fill="none" xmlns="http://www.w3.org/2000/svg">
<path d="M19.2907 4.4975C16.1508 4.06556 12.9606 4.7843 10.3092 6.52099C7.65782 8.25769 5.72434 10.895 4.86578 13.9461C4.00722 16.9971 4.28156 20.2557 5.63815 23.1203C6.99473 25.9848 9.34194 28.2618 12.2464 29.5307C12.1678 28.5227 12.2399 27.5085 12.4603 26.5217C12.703 25.4206 14.161 19.3526 14.161 19.3526C13.8707 18.7018 13.7256 17.9957 13.7358 17.2831C13.7358 15.3344 14.8604 13.8804 16.2593 13.8804C16.5107 13.8767 16.7598 13.9272 16.9899 14.0284C17.2199 14.1297 17.4255 14.2792 17.5926 14.467C17.7597 14.6547 17.8844 14.8763 17.9582 15.1165C18.032 15.3568 18.0532 15.6101 18.0204 15.8593C18.0204 17.0404 17.2619 18.8277 16.8656 20.5048C16.7873 20.8124 16.7823 21.1341 16.8511 21.4439C16.9199 21.7538 17.0605 22.0431 17.2616 22.2887C17.4627 22.5342 17.7187 22.7291 18.0089 22.8575C18.2992 22.986 18.6155 23.0445 18.9325 23.0283C21.4232 23.0283 23.0924 19.8382 23.0924 16.0719C23.0924 13.1849 21.1804 11.0222 17.6556 11.0222C16.8123 10.9894 15.9711 11.1284 15.1832 11.4307C14.3952 11.7329 13.6769 12.1922 13.0719 12.7805C12.4668 13.3689 11.9877 14.0741 11.6635 14.8533C11.3393 15.6325 11.1769 16.4694 11.186 17.3133C11.1485 18.2494 11.4505 19.1675 12.0364 19.8985C12.1459 19.9803 12.2258 20.0954 12.2642 20.2265C12.3025 20.3576 12.2972 20.4977 12.249 20.6255C12.1886 20.867 12.0364 21.4431 11.976 21.6544C11.9635 21.726 11.9343 21.7937 11.8908 21.852C11.8473 21.9103 11.7907 21.9576 11.7256 21.99C11.6604 22.0224 11.5886 22.0391 11.5159 22.0387C11.4431 22.0383 11.3715 22.0208 11.3068 21.9877C9.49055 21.2607 8.63494 19.2621 8.63494 16.98C8.63494 13.2439 11.7634 8.77162 18.0231 8.77162C23.0045 8.77162 26.3167 12.4159 26.3167 16.3134C26.3167 21.4431 23.4599 25.2999 19.2382 25.2999C18.6073 25.3201 17.9814 25.1808 17.4185 24.895C16.8556 24.6092 16.3739 24.1861 16.0179 23.6648C16.0179 23.6648 15.2594 26.7041 15.1098 27.2788C14.8044 28.2719 14.3538 29.2142 13.7726 30.0753C14.9838 30.4428 16.2423 30.6265 17.5073 30.6212C19.2311 30.6226 20.9383 30.284 22.531 29.6247C24.1237 28.9654 25.5708 27.9983 26.7892 26.779C28.0077 25.5597 28.9737 24.112 29.6319 22.5188C30.2901 20.9256 30.6276 19.2182 30.625 17.4944C30.6234 14.3252 29.4751 11.2637 27.3923 8.875C25.3095 6.48635 22.4328 4.93195 19.2934 4.49881L19.2907 4.4975Z" fill="#E1E1E1"/>
</svg>
