<svg width="36" height="35" viewBox="0 0 36 35" fill="none" xmlns="http://www.w3.org/2000/svg">
<path d="M14.9848 25.1692C16.9873 25.1692 18.6107 23.7754 18.6107 21.6441V5.83325H22.9591C22.7152 8.71671 25.6635 11.5021 28.915 11.4384V15.4137C26.1343 15.4137 23.7697 14.2706 22.9467 13.6362V21.6441C22.9467 25.1692 20.0943 29.1666 14.9848 29.1666C9.87535 29.1666 7.08521 25.1692 7.08521 21.6441C7.08521 16.6687 12.5009 13.7832 16.0878 14.4884V18.5376C15.9073 18.4755 15.442 18.3838 15.0456 18.3838C13.0265 18.3114 11.359 19.9035 11.359 21.6441C11.359 23.5909 12.9823 25.1692 14.9848 25.1692Z" fill="#E1E1E1"/>
</svg>
